<svg xmlns="http://www.w3.org/2000/svg" viewBox="0 0 60.4 62.1"><path fill="#fff" d="M20.8 54.1c0-3.8.2-8.2.3-13 2.2.8 4.1 1.3 5.5 1.7 1.9.4 3.6.6 5.2.6 1.8 0 3.4-.3 4.9-1 1.1-.5 1.9-1.2 2.5-2 .8-1.1 1.4-2.5 1.7-4 .5-2.7.9-7.5 1.2-14.2v-1.3c.2-4.8.3-9.1.3-13V0c4.3.1 7.2.1 8.6.1 1.8 0 4.8 0 9.1-.1l-1.2 17.9c-.3 5.3-.5 10.9-.7 16.9-.1 4.6-.3 7.7-.7 9.4-.3 1.5-.8 2.8-1.4 3.9-.5 1-1.2 1.9-2 2.7-1 .9-2.2 1.8-3.6 2.5-1.9 1-3.9 1.7-6 2.2-2.4.5-4.9.8-7.5.8-4.5-.1-10-.8-16.2-2.2z"/><path d="M39.6 8c0 3.8-.2 8.2-.3 13-2.2-.8-4.1-1.3-5.5-1.7-1.9-.4-3.6-.6-5.2-.6-1.8 0-3.4.3-4.9 1-1.1.5-1.9 1.2-2.5 2-.8 1.1-1.4 2.5-1.7 4-.5 2.7-.9 7.5-1.2 14.2v1.3c-.2 4.8-.3 9.1-.3 13v8c-4.3-.1-7.2-.1-8.6-.1-1.8 0-4.8 0-9.1.1l1.2-17.9c0-5.3.2-11 .4-16.9.1-4.6.3-7.7.7-9.4.3-1.5.8-2.8 1.4-3.9.5-1 1.2-1.9 2-2.7 1-.9 2.2-1.8 3.6-2.5 1.9-1 3.9-1.7 6-2.2 2.4-.5 4.9-.8 7.5-.8 4.8 0 10.3.7 16.5 2.1z" fill="#d2d8db"/></svg>